<?xml version="1.0" encoding="UTF-8"?><svg id="a" xmlns="http://www.w3.org/2000/svg" xmlns:xlink="http://www.w3.org/1999/xlink" viewBox="0 0 94.22 95"><defs><linearGradient id="b" x1="-8.99" y1="20.32" x2="65.72" y2="95.02" gradientTransform="translate(0 96.51) scale(1 -1)" gradientUnits="userSpaceOnUse"><stop offset="0" stop-color="#007aff"/><stop offset=".22" stop-color="#5856d6"/><stop offset=".41" stop-color="#a852dd"/><stop offset=".6" stop-color="#ff2d55"/><stop offset=".8" stop-color="#ff3b30"/><stop offset="1" stop-color="#ff9500"/></linearGradient><linearGradient id="c" x1="7.02" y1="-4.03" x2="87.03" y2="75.97" xlink:href="#b"/></defs><path d="M68.46,64.46c2.25-.68,4.1-2.19,5.22-4.27,1.12-2.08,1.36-4.47.68-6.73-.67-2.26-2.17-4.13-4.23-5.25s-4.43-1.38-6.67-.69l-1.21.35v.05l-29.83,9c-1.76.53-3.55.78-5.3.78-7.99,0-15.39-5.25-17.78-13.36-1.42-4.78-.89-9.84,1.46-14.24,2.35-4.4,6.26-7.6,11.01-9.03l48.74-14.75C63.65,2.31,55.65,0,47.11,0H0v85.18l68.45-20.71h0Z" style="fill:url(#b);"/><path d="M80.19,13.7L24.63,30.51c-2.25.68-4.1,2.19-5.22,4.27s-1.36,4.47-.68,6.73c1.38,4.67,6.28,7.34,10.9,5.94l25.7-7.75-.02-.08,5.38-1.58c4.71-1.42,9.73-.9,14.09,1.48,4.36,2.37,7.54,6.31,8.95,11.11,1.42,4.78.89,9.84-1.46,14.24-2.35,4.4-6.26,7.6-11.01,9.03L1.49,95h45.62c25.98,0,47.11-21.31,47.11-47.52,0-13.21-5.38-25.18-14.04-33.79h.01Z" style="fill:url(#c);"/></svg>